<svg width="403" height="401" viewBox="0 0 403 401" fill="none" xmlns="http://www.w3.org/2000/svg">
<rect width="403" height="401" fill="white"/>
<path d="M42.2139 211.195L68.7701 237.67C68.8099 237.711 68.8504 237.75 68.891 237.79L100.72 269.524C100.758 269.561 100.795 269.598 100.832 269.635L132.66 301.366C132.696 301.403 132.733 301.44 132.77 301.476L164.606 333.216C164.642 333.252 164.678 333.288 164.714 333.325L191.281 359.81C192.692 361.218 194.605 362.006 196.596 362C198.586 361.994 200.493 361.194 201.896 359.778L286.554 274.343L297.146 263.66C311.729 248.932 311.657 225.048 296.983 210.42L275.682 189.184C274.261 187.766 273.475 185.879 273.469 183.869C273.462 181.859 274.237 179.966 275.65 178.54L286.09 168.005L376.771 86.04C376.775 86.0369 376.778 86.0332 376.782 86.0302C377.55 85.345 378.253 84.6809 378.927 84.0018C396.433 66.3342 396.346 37.674 378.733 20.1137C370.213 11.621 358.89 6.96338 346.847 7.00022C334.805 7.03705 323.509 11.7632 315.043 20.307C314.358 20.9973 313.684 21.7245 312.982 22.5292C312.98 22.5307 312.978 22.533 312.977 22.5352C312.973 22.539 312.97 22.5428 312.966 22.5466L232.817 114.959L222.412 125.461C219.495 128.405 214.734 128.419 211.799 125.493L190.501 104.268C183.391 97.1751 173.955 93.2854 163.931 93.3163C153.907 93.3464 144.494 97.294 137.431 104.427L126.84 115.108L42.1824 200.546C39.2602 203.495 39.2745 208.263 42.2139 211.195ZM324.291 32.4311C324.777 31.8762 325.233 31.3831 325.688 30.9247C331.329 25.2318 338.859 22.0841 346.892 22.0595C354.925 22.035 362.474 25.1365 368.148 30.7948C379.891 42.5017 379.949 61.608 368.28 73.3842C367.815 73.8524 367.32 74.3193 366.766 74.8119C366.759 74.8187 366.752 74.8262 366.745 74.833C366.737 74.8406 366.729 74.8459 366.721 74.8534L281.159 152.19L248.588 119.716L324.291 32.4311ZM148.078 115.041C152.317 110.76 157.963 108.392 163.976 108.374C169.988 108.355 175.649 110.689 179.917 114.947L201.216 136.174C210.021 144.953 224.305 144.909 233.058 136.077L238.348 130.738L270.291 162.585L265.003 167.924C260.762 172.203 258.438 177.882 258.456 183.914C258.474 189.947 260.834 195.612 265.099 199.864L286.399 221.1C295.204 229.877 295.247 244.209 286.499 253.043L281.201 258.385L142.781 120.383L148.078 115.041ZM132.195 131.062L270.616 269.065L196.541 343.823L180.567 327.897L186.081 322.144C189.004 319.196 188.989 314.428 186.049 311.496C184.579 310.03 182.656 309.3 180.734 309.306C178.813 309.312 176.895 310.054 175.434 311.528L169.918 317.281L148.62 296.047L190.165 256.413C193.088 253.465 193.074 248.697 190.133 245.765C188.663 244.299 186.74 243.569 184.818 243.575C182.897 243.581 180.979 244.323 179.518 245.797L137.973 285.431L116.682 264.205L158.226 224.571C161.149 221.623 161.135 216.855 158.195 213.923C156.724 212.457 154.801 211.728 152.879 211.734C150.959 211.739 149.04 212.481 147.579 213.955L106.035 253.59L84.7366 232.356L89.4992 227.357C92.4222 224.408 92.4079 219.641 89.4677 216.709C87.9972 215.243 86.0742 214.513 84.1526 214.519C82.2317 214.525 80.3131 215.266 78.8524 216.741L74.0882 221.741L58.1195 205.82L132.195 131.062Z" fill="#808080"/>
<path d="M54 250L31 272" stroke="#808080" stroke-width="20" stroke-linecap="round"/>
<path d="M149 347L126 370" stroke="#808080" stroke-width="20" stroke-linecap="round"/>
<path d="M87 280L16 351" stroke="#808080" stroke-width="20" stroke-linecap="round"/>
<path d="M119 312L48 383" stroke="#808080" stroke-width="20" stroke-linecap="round"/>
</svg>
